<svg height="512" viewBox="0 0 64 64" width="512" xmlns="http://www.w3.org/2000/svg"><path d="M51 29v16a4 4 0 01-4 4H17a4 4 0 01-4-4V29a25.717 25.717 0 013.32-12C20.57 9.04 27.91 3 32 3c4.19 0 11.78 5.85 15.99 14.14A26.3 26.3 0 0151 29z" fill="#4da6ea"/><path d="M20 49h4v4h-4z" fill="#f9bb4b"/><path d="M51 36v9a4 4 0 01-4 4H17a4 4 0 01-4-4v-9h5a2.354 2.354 0 012 2l1 3h22l1-3a2.354 2.354 0 012-2z" fill="#4f83d1"/><path d="M28 61H16l2-4h8z" fill="#4da6ea"/><path d="M40 49h4v4h-4z" fill="#f9bb4b"/><path d="M48 61H36l2-4h8z" fill="#4da6ea"/><path d="M18 53h8v4h-8zM38 53h8v4h-8z" fill="#e97424"/><path d="M47.99 17.14a42.873 42.873 0 00-16-2.81A43.554 43.554 0 0016.32 17C20.57 9.04 27.91 3 32 3c4.19 0 11.78 5.85 15.99 14.14z" fill="#f98c96"/><path d="M25 19h14v12H25z" fill="#4f83d1"/><ellipse cx="32" cy="25" fill="#fcf05a" rx="3" ry="4"/><ellipse cx="19" cy="26" fill="#fcf05a" rx="2" ry="3"/><ellipse cx="45" cy="26" fill="#fcf05a" rx="2" ry="3"/><g fill="#2d5a9b"><path d="M47 46h-6v-2h5.153l.861-5.165 1.972.33-1 6A1 1 0 0147 46zM23 46h-6a1 1 0 01-.986-.835l-1-6 1.972-.33.861 5.165H23zM29 44h6v2h-6zM37 44h2v2h-2zM25 44h2v2h-2z"/></g><path d="M40.293 37.707L38.586 36H25.414l-1.707 1.707-1.414-1.414 2-2A1 1 0 0125 34h14a1 1 0 01.707.293l2 2z" fill="#f4f4e6"/></svg>