<svg height="512" viewBox="0 0 512.004 512.004" width="512" xmlns="http://www.w3.org/2000/svg"><path d="M221.799 139.528a15.014 15.014 0 00-14.024-7.249L85.88 141.695c-12.341.954-23.334 7.422-30.162 17.748L4.563 236.815c-5.177 7.831-6.001 17.63-2.203 26.214 3.797 8.584 11.602 14.565 20.877 16.002l98.84 15.309a15.005 15.005 0 0014.935-6.744l84.557-132.283a15.003 15.003 0 00.23-15.785z" fill="#e45a6e"/><path d="M372.475 290.205a15.001 15.001 0 00-15.785.23l-132.282 84.557a15.003 15.003 0 00-6.745 14.935l15.308 98.84c1.437 9.276 7.419 17.08 16.004 20.878a27.441 27.441 0 0011.112 2.358 27.348 27.348 0 0015.101-4.561l77.373-51.156c10.326-6.826 16.795-17.82 17.747-30.162l9.416-121.894a15 15 0 00-7.249-14.025z" fill="#d82e44"/><path d="M192.87 412.278c5.97 5.97 14.453 8.763 22.78 7.37 122.112-20.418 218.741-121.522 255.528-192.645 40.849-78.974 42.362-162.43 40.227-201.57C510.673 12.021 499.982 1.33 486.57.598 447.43-1.536 363.975-.023 285 40.826 213.878 77.613 112.774 174.242 92.356 296.354c-1.392 8.327 1.4 16.81 7.37 22.78z" fill="#f1f1fb"/><path d="M503.743 8.261L146.298 365.706l46.572 46.572c5.97 5.97 14.453 8.762 22.78 7.37 122.112-20.418 218.741-121.522 255.528-192.644 40.849-78.974 42.362-162.43 40.227-201.57a26.25 26.25 0 00-7.662-17.173z" fill="#d7d6fb"/><path d="M350.731 236.238c-19.209.001-38.41-7.309-53.033-21.932-14.166-14.165-21.968-33-21.968-53.033s7.802-38.868 21.968-53.033c29.241-29.242 76.822-29.243 106.065 0 14.166 14.165 21.967 33 21.967 53.033s-7.801 38.868-21.967 53.033c-14.619 14.62-33.829 21.93-53.032 21.932zm-42.427-117.391h.01zM92.356 296.354c-1.392 8.327 1.4 16.81 7.37 22.78l93.144 93.144c5.97 5.97 14.453 8.762 22.78 7.37 26.571-4.443 51.933-12.709 75.737-23.652L116.008 220.618c-10.943 23.803-19.209 49.166-23.652 75.736z" fill="#466288"/><path d="M15.304 421.938c3.838 0 7.678-1.465 10.606-4.394l48.973-48.973c5.858-5.857 5.858-15.355 0-21.213-5.857-5.858-15.354-5.858-21.213 0L4.698 396.331c-5.858 5.857-5.858 15.355 0 21.213a14.948 14.948 0 0010.606 4.394zM119.764 392.24c-5.857-5.857-15.355-5.857-21.213 0L4.397 486.394c-5.858 5.857-5.858 15.355 0 21.213C7.326 510.536 11.165 512 15.004 512s7.678-1.465 10.606-4.394l94.154-94.154c5.858-5.857 5.858-15.355 0-21.212z" fill="#fdb43a"/><path d="M164.645 437.121c-5.857-5.857-15.355-5.857-21.213 0L94.46 486.093c-5.858 5.857-5.858 15.355 0 21.213 2.929 2.929 6.768 4.394 10.606 4.394s7.678-1.465 10.606-4.394l48.973-48.973c5.858-5.857 5.858-15.355 0-21.212zM4.397 507.607C7.326 510.536 11.165 512 15.004 512s7.678-1.465 10.606-4.394l94.154-94.154c5.858-5.857 5.858-15.355 0-21.213z" fill="#f57a21"/><path d="M146.298 365.706l46.572 46.572c5.97 5.97 14.453 8.762 22.78 7.37 26.571-4.443 51.933-12.709 75.737-23.652l-87.689-87.689zM297.698 214.306c14.623 14.623 33.824 21.934 53.033 21.932 19.203-.002 38.413-7.313 53.032-21.932 14.166-14.166 21.967-33 21.967-53.033s-7.801-38.868-21.967-53.033z" fill="#354a67"/><path d="M350.73 116.295c-11.523 0-23.047 4.386-31.819 13.159-8.499 8.499-13.181 19.799-13.181 31.819s4.682 23.32 13.181 31.819c17.545 17.545 46.095 17.546 63.64 0 8.499-8.5 13.18-19.8 13.18-31.82s-4.681-23.32-13.18-31.819c-8.773-8.772-20.296-13.158-31.821-13.158z" fill="#4bbefd"/><path d="M382.55 129.454l-63.639 63.639c17.545 17.545 46.095 17.546 63.639 0 8.499-8.5 13.18-19.8 13.18-31.82s-4.68-23.32-13.18-31.819z" fill="#0590fb"/></svg>